<svg width="28" height="28" viewBox="0 0 28 28" fill="none" xmlns="http://www.w3.org/2000/svg">
<path d="M14 1.47368C10.6778 1.47368 7.4917 2.79342 5.14256 5.14256C2.79342 7.4917 1.47368 10.6778 1.47368 14C1.47368 17.3222 2.79342 20.5083 5.14256 22.8574C7.4917 25.2066 10.6778 26.5263 14 26.5263C15.645 26.5263 17.2739 26.2023 18.7936 25.5728C20.3134 24.9433 21.6943 24.0206 22.8574 22.8574C24.0206 21.6943 24.9433 20.3134 25.5728 18.7936C26.2023 17.2739 26.5263 15.645 26.5263 14C26.5263 10.6778 25.2066 7.4917 22.8574 5.14256C20.5083 2.79342 17.3222 1.47368 14 1.47368ZM14 0C17.713 0 21.274 1.475 23.8995 4.1005C26.525 6.72601 28 10.287 28 14C28 17.713 26.525 21.274 23.8995 23.8995C21.274 26.525 17.713 28 14 28C10.287 28 6.72601 26.525 4.1005 23.8995C1.475 21.274 0 17.713 0 14C0 10.287 1.475 6.72601 4.1005 4.1005C6.72601 1.475 10.287 0 14 0ZM13.2632 20.6316H14.7368V23.5789H13.2632V20.6316ZM14 4.42105C15.368 4.42105 16.6799 4.96447 17.6472 5.93177C18.6145 6.89906 19.1579 8.21099 19.1579 9.57895C19.1579 10.9053 18.1263 11.7895 17.0358 12.7916L15.6653 14.1179C14.7958 15.1053 14.6926 16.9916 14.7368 17.64V17.6842H13.2632C13.2632 17.6105 13.1158 14.7958 14.5453 13.1453L16.0632 11.6863C16.9474 10.9053 17.6842 10.2421 17.6842 9.57895C17.6842 8.60183 17.2961 7.66474 16.6051 6.97382C15.9142 6.28289 14.9771 5.89474 14 5.89474C13.0229 5.89474 12.0858 6.28289 11.3949 6.97382C10.7039 7.66474 10.3158 8.60183 10.3158 9.57895H8.8421C8.8421 8.21099 9.38552 6.89906 10.3528 5.93177C11.3201 4.96447 12.632 4.42105 14 4.42105Z" fill="#CFCFCF"/>
</svg>
