<svg width="70" height="55" viewBox="0 0 70 55" fill="none" xmlns="http://www.w3.org/2000/svg">
<path d="M50.4632 17.7052C52.3864 19.6481 53.6517 21.6932 54.259 23.8406C54.8663 25.988 54.8579 28.1269 54.2337 30.2572C53.5757 32.3876 52.3105 34.3986 50.4379 36.2904C49.0376 37.7049 47.5784 38.7701 46.06 39.4859C44.508 40.2017 42.939 40.5596 41.3532 40.5596C39.7506 40.5766 38.1648 40.2358 36.5958 39.537C35.01 38.8212 33.5001 37.739 32.0662 36.2904C31.2227 35.4382 30.4804 34.4668 29.8393 33.3761C29.1645 32.2853 28.7006 31.2202 28.4475 30.1805C28.2619 29.5159 28.2704 28.9279 28.4728 28.4166C28.6753 27.9053 28.9874 27.5048 29.4091 27.2151C29.814 26.9083 30.2611 26.7464 30.7503 26.7294C31.2227 26.6953 31.6613 26.8146 32.0662 27.0873C32.4711 27.36 32.7747 27.8201 32.9772 28.4677C33.1796 29.2858 33.4917 30.0442 33.9135 30.743C34.3352 31.4417 34.8329 32.0808 35.4065 32.6603C36.5368 33.8021 37.7177 34.535 38.9492 34.8588C40.147 35.1826 41.3617 35.1144 42.5932 34.6543C43.8247 34.1941 45.0563 33.342 46.2878 32.0979C47.5024 30.8708 48.346 29.6267 48.8183 28.3655C49.2907 27.1043 49.375 25.8602 49.0714 24.6331C48.734 23.406 48.0001 22.2216 46.8698 21.0797C46.33 20.5343 45.7142 20.0486 45.0225 19.6225C44.314 19.1794 43.5548 18.8386 42.745 18.6C42.0871 18.3784 41.6232 18.0631 41.3532 17.6541C41.0496 17.2451 40.9146 16.802 40.9484 16.3248C40.9484 15.8476 41.0918 15.413 41.3785 15.021C41.6485 14.612 42.0196 14.3052 42.492 14.1007C42.9643 13.8962 43.5042 13.8621 44.1115 13.9984C45.1575 14.2029 46.254 14.6461 47.4012 15.3278C48.5484 16.0095 49.5691 16.802 50.4632 17.7052Z" fill="#F37413"/>
<path d="M18.4028 18.6655C19.6681 17.3873 20.9502 16.4159 22.2492 15.7512C23.5483 15.1206 24.8473 14.7968 26.1463 14.7798C27.4453 14.7627 28.7443 15.0695 30.0433 15.7001C31.3423 16.3647 32.6329 17.3447 33.915 18.6399L42.5189 27.3318C43.1768 27.9964 43.5058 28.6696 43.5058 29.3513C43.5058 30.033 43.1852 30.6977 42.5442 31.3453C41.92 31.9759 41.2705 32.2912 40.5956 32.2912C39.9208 32.2912 39.2545 31.9589 38.5965 31.2942L29.9674 22.5768C28.5165 21.1111 27.091 20.3357 25.6908 20.2505C24.3074 20.1823 22.9915 20.7788 21.7431 22.04C20.4947 23.3011 19.9127 24.622 19.9971 26.0024C20.0814 27.417 20.849 28.8571 22.2999 30.3228L30.929 39.0401C31.5869 39.7048 31.9159 40.378 31.9159 41.0597C31.9159 41.7414 31.6038 42.3976 30.9796 43.0282C30.3554 43.6587 29.7143 43.9655 29.0564 43.9485C28.3816 43.9485 27.7152 43.6161 27.0573 42.9515L18.4534 34.2596C16.7495 32.5383 15.6108 30.7914 15.0372 29.019C14.4636 27.2806 14.4636 25.5423 15.0372 23.8039C15.5939 22.0826 16.7158 20.3698 18.4028 18.6655Z" fill="#F37413"/>
</svg>
