<svg width="30" height="8" viewBox="0 0 30 8" fill="none" xmlns="http://www.w3.org/2000/svg">
<path d="M22.5 3.75C22.5 2.75544 22.8951 1.80161 23.5984 1.09835C24.3016 0.395089 25.2554 0 26.25 0C27.2446 0 28.1984 0.395089 28.9016 1.09835C29.6049 1.80161 30 2.75544 30 3.75C30 4.74456 29.6049 5.69839 28.9016 6.40165C28.1984 7.10491 27.2446 7.5 26.25 7.5C25.2554 7.5 24.3016 7.10491 23.5984 6.40165C22.8951 5.69839 22.5 4.74456 22.5 3.75ZM11.25 3.75C11.25 2.75544 11.6451 1.80161 12.3484 1.09835C13.0516 0.395089 14.0054 0 15 0C15.9946 0 16.9484 0.395089 17.6516 1.09835C18.3549 1.80161 18.75 2.75544 18.75 3.75C18.75 4.74456 18.3549 5.69839 17.6516 6.40165C16.9484 7.10491 15.9946 7.5 15 7.5C14.0054 7.5 13.0516 7.10491 12.3484 6.40165C11.6451 5.69839 11.25 4.74456 11.25 3.75ZM0 3.75C0 2.75544 0.395088 1.80161 1.09835 1.09835C1.80161 0.395089 2.75544 0 3.75 0C4.74456 0 5.69839 0.395089 6.40165 1.09835C7.10491 1.80161 7.5 2.75544 7.5 3.75C7.5 4.74456 7.10491 5.69839 6.40165 6.40165C5.69839 7.10491 4.74456 7.5 3.75 7.5C2.75544 7.5 1.80161 7.10491 1.09835 6.40165C0.395088 5.69839 0 4.74456 0 3.75ZM3.75 1.875C3.25272 1.875 2.77581 2.07254 2.42418 2.42418C2.07254 2.77581 1.875 3.25272 1.875 3.75C1.875 4.24728 2.07254 4.72419 2.42418 5.07582C2.77581 5.42746 3.25272 5.625 3.75 5.625C4.24728 5.625 4.72419 5.42746 5.07582 5.07582C5.42746 4.72419 5.625 4.24728 5.625 3.75C5.625 3.25272 5.42746 2.77581 5.07582 2.42418C4.72419 2.07254 4.24728 1.875 3.75 1.875ZM15 1.875C14.5027 1.875 14.0258 2.07254 13.6742 2.42418C13.3225 2.77581 13.125 3.25272 13.125 3.75C13.125 4.24728 13.3225 4.72419 13.6742 5.07582C14.0258 5.42746 14.5027 5.625 15 5.625C15.4973 5.625 15.9742 5.42746 16.3258 5.07582C16.6775 4.72419 16.875 4.24728 16.875 3.75C16.875 3.25272 16.6775 2.77581 16.3258 2.42418C15.9742 2.07254 15.4973 1.875 15 1.875ZM26.25 1.875C25.7527 1.875 25.2758 2.07254 24.9242 2.42418C24.5725 2.77581 24.375 3.25272 24.375 3.75C24.375 4.24728 24.5725 4.72419 24.9242 5.07582C25.2758 5.42746 25.7527 5.625 26.25 5.625C26.7473 5.625 27.2242 5.42746 27.5758 5.07582C27.9275 4.72419 28.125 4.24728 28.125 3.75C28.125 3.25272 27.9275 2.77581 27.5758 2.42418C27.2242 2.07254 26.7473 1.875 26.25 1.875Z" fill="#CFCFCF"/>
</svg>
