<svg width="24" height="29" viewBox="0 0 24 29" fill="none" xmlns="http://www.w3.org/2000/svg">
<path d="M12 7.19671e-08C12.8136 -0.000162366 13.6023 0.27466 14.2326 0.777955C14.8629 1.28125 15.2961 1.98211 15.4588 2.7619H19.7647C20.888 2.7619 21.9652 3.19838 22.7595 3.97532C23.5538 4.75226 24 5.80601 24 6.90476V24.8571C24 25.9559 23.5538 27.0096 22.7595 27.7866C21.9652 28.5635 20.888 29 19.7647 29H4.23529C3.11202 29 2.03476 28.5635 1.24049 27.7866C0.446217 27.0096 0 25.9559 0 24.8571V6.90476C0 5.80601 0.446217 4.75226 1.24049 3.97532C2.03476 3.19838 3.11202 2.7619 4.23529 2.7619H8.54118C8.7039 1.98211 9.13707 1.28125 9.76736 0.777955C10.3977 0.27466 11.1864 -0.000162366 12 7.19671e-08ZM13.9906 2.7619C13.8454 2.35891 13.576 2.00991 13.2194 1.76304C12.8629 1.51618 12.4368 1.3836 12 1.3836C11.5632 1.3836 11.1371 1.51618 10.7806 1.76304C10.424 2.00991 10.1546 2.35891 10.0094 2.7619H13.9906ZM4.23529 4.14286C3.48645 4.14286 2.76827 4.43384 2.23876 4.9518C1.70924 5.46976 1.41176 6.17226 1.41176 6.90476V24.8571C1.41176 25.5896 1.70924 26.2921 2.23876 26.8101C2.76827 27.3281 3.48645 27.619 4.23529 27.619H19.7647C20.5136 27.619 21.2317 27.3281 21.7612 26.8101C22.2908 26.2921 22.5882 25.5896 22.5882 24.8571V6.90476C22.5882 6.17226 22.2908 5.46976 21.7612 4.9518C21.2317 4.43384 20.5136 4.14286 19.7647 4.14286H18.3529V8.28571H5.64706V4.14286H4.23529ZM7.05882 4.14286V6.90476H16.9412V4.14286H7.05882Z" fill="#CFCFCF"/>
</svg>
