<svg width="30" height="22" viewBox="0 0 30 22" fill="none" xmlns="http://www.w3.org/2000/svg">
<path d="M4.73684 0H25.2632C26.5194 0 27.7243 0.46357 28.6126 1.28873C29.5009 2.11389 30 3.23305 30 4.4V17.6C30 18.767 29.5009 19.8861 28.6126 20.7113C27.7243 21.5364 26.5194 22 25.2632 22H4.73684C3.48055 22 2.27572 21.5364 1.38739 20.7113C0.499059 19.8861 0 18.767 0 17.6V4.4C0 3.23305 0.499059 2.11389 1.38739 1.28873C2.27572 0.46357 3.48055 0 4.73684 0ZM4.73684 1.46667C3.94737 1.46667 3.25263 1.716 2.71579 2.156L15 9.53333L27.2842 2.156C26.7474 1.716 26.0526 1.46667 25.2632 1.46667H4.73684ZM15 11.308L1.78421 3.344C1.65789 3.66667 1.57895 4.03333 1.57895 4.4V17.6C1.57895 18.378 1.91165 19.1241 2.50387 19.6742C3.09609 20.2243 3.89932 20.5333 4.73684 20.5333H25.2632C26.1007 20.5333 26.9039 20.2243 27.4961 19.6742C28.0883 19.1241 28.4211 18.378 28.4211 17.6V4.4C28.4211 4.03333 28.3421 3.66667 28.2158 3.344L15 11.308Z" fill="#CFCFCF"/>
</svg>

