<svg width="20" height="20" viewBox="0 0 20 20" fill="none" xmlns="http://www.w3.org/2000/svg">
<path fill-rule="evenodd" clip-rule="evenodd" d="M6.12081 3.34751C8.69902 3.06173 11.3009 3.06173 13.8791 3.34751C15.3066 3.50751 16.4583 4.63168 16.6258 6.06418C16.9316 8.67916 16.9316 11.3209 16.6258 13.9358C16.4583 15.3683 15.3066 16.4925 13.8791 16.6525C11.3009 16.9383 8.69902 16.9383 6.12081 16.6525C4.69331 16.4925 3.54164 15.3683 3.37414 13.9358C3.06832 11.3211 3.06832 8.67971 3.37414 6.06501C3.45886 5.36907 3.77612 4.72214 4.2745 4.22905C4.77288 3.73597 5.42317 3.42563 6.11997 3.34835M9.99997 5.83918C10.1657 5.83918 10.3247 5.90503 10.4419 6.02224C10.5591 6.13945 10.625 6.29842 10.625 6.46418V9.37501H13.5358C13.7016 9.37501 13.8605 9.44086 13.9777 9.55807C14.095 9.67528 14.1608 9.83425 14.1608 10C14.1608 10.1658 14.095 10.3247 13.9777 10.442C13.8605 10.5592 13.7016 10.625 13.5358 10.625H10.625V13.5358C10.625 13.7016 10.5591 13.8606 10.4419 13.9778C10.3247 14.095 10.1657 14.1608 9.99997 14.1608C9.83421 14.1608 9.67524 14.095 9.55803 13.9778C9.44082 13.8606 9.37497 13.7016 9.37497 13.5358V10.625H6.46414C6.29838 10.625 6.13941 10.5592 6.0222 10.442C5.90499 10.3247 5.83914 10.1658 5.83914 10C5.83914 9.83425 5.90499 9.67528 6.0222 9.55807C6.13941 9.44086 6.29838 9.37501 6.46414 9.37501H9.37497V6.46418C9.37497 6.29842 9.44082 6.13945 9.55803 6.02224C9.67524 5.90503 9.83421 5.83918 9.99997 5.83918Z" fill="#F37413"/>
</svg>
